PathFileType	4	(X/Y/Z) shrug_2kg_2.trc																										
DataRate	CameraRate	NumFrames	NumMarkers	Units	OrigDataRate	OrigDataStartFrame	OrigNumFrames																					
100	100	38	9	mm	100	421	480																					
Frame#	Time	gu			centelbow			EpL			centpxt8			centijc7			ij			ts			aa			ai		
		X1	Y1	Z1	X2	Y2	Z2	X3	Y3	Z3	X4	Y4	Z4	X5	Y5	Z5	X6	Y6	Z6	X7	Y7	Z7	X8	Y8	Z8	X9	Y9	Z9  
420	4.2	-97.685	-14.12	158.517	-131.082	-257.776	180.892	-114.476	-253.498	208.193	-46.816	-153.158	-8.669	-46.816	31.938	-8.669	0	0	0	-139.058	36.639	46.279	-120.153	25.001	163.462	-169.028	-72.845	45.545
421	4.21	-97.875	-14.159	158.642	-131.3	-257.812	181.012	-114.694	-253.536	208.314	-46.816	-153.158	-8.669	-46.816	31.938	-8.669	0	0	0	-139.2	36.725	46.315	-120.284	25.109	163.499	-169.151	-72.764	45.601
422	4.22	-97.967	-14.264	158.794	-131.429	-257.911	181.171	-114.824	-253.636	208.473	-46.816	-153.158	-8.669	-46.816	31.938	-8.669	0	0	0	-139.43	36.749	46.336	-120.506	25.15	163.52	-169.38	-72.742	45.64
423	4.23	-97.851	-14.403	158.948	-131.335	-258.046	181.338	-114.731	-253.772	208.641	-46.816	-153.158	-8.669	-46.816	31.938	-8.669	0	0	0	-139.611	36.762	46.344	-120.692	25.172	163.53	-169.564	-72.728	45.656
424	4.24	-97.6	-14.484	158.989	-131.079	-258.126	181.397	-114.476	-253.849	208.7	-46.816	-153.158	-8.669	-46.816	31.938	-8.669	0	0	0	-139.643	36.761	46.351	-120.738	25.183	163.541	-169.597	-72.728	45.67
425	4.25	-97.383	-14.433	158.793	-130.834	-258.076	181.226	-114.229	-253.795	208.527	-46.816	-153.158	-8.669	-46.816	31.938	-8.669	0	0	0	-139.551	36.747	46.356	-120.665	25.192	163.551	-169.505	-72.742	45.692
426	4.26	-97.34	-14.315	158.473	-130.768	-257.96	180.923	-114.16	-253.676	208.222	-46.816	-153.158	-8.669	-46.816	31.938	-8.669	0	0	0	-139.459	36.754	46.334	-120.583	25.228	163.533	-169.41	-72.736	45.694
427	4.27	-97.468	-14.254	158.297	-130.894	-257.899	180.751	-114.284	-253.614	208.048	-46.816	-153.158	-8.669	-46.816	31.938	-8.669	0	0	0	-139.427	36.767	46.262	-120.542	25.265	163.462	-169.378	-72.723	45.647
428	4.28	-97.631	-14.258	158.328	-131.059	-257.902	180.781	-114.448	-253.619	208.078	-46.816	-153.158	-8.669	-46.816	31.938	-8.669	0	0	0	-139.401	36.755	46.142	-120.49	25.268	163.339	-169.357	-72.734	45.548
429	4.29	-97.761	-14.26	158.448	-131.188	-257.904	180.906	-114.577	-253.62	208.203	-46.816	-153.158	-8.669	-46.816	31.938	-8.669	0	0	0	-139.389	36.753	46.019	-120.46	25.279	163.215	-169.355	-72.734	45.444
430	4.3	-97.93	-14.228	158.604	-131.353	-257.872	181.07	-114.748	-253.585	208.371	-46.816	-153.158	-8.669	-46.816	31.938	-8.669	0	0	0	-139.487	36.827	45.952	-120.563	25.376	163.151	-169.451	-72.661	45.397
431	4.31	-98.154	-14.189	158.783	-131.552	-257.836	181.252	-114.962	-253.545	208.561	-46.816	-153.158	-8.669	-46.816	31.938	-8.669	0	0	0	-139.698	36.961	45.942	-120.797	25.543	163.148	-169.635	-72.534	45.407
432	4.32	-98.289	-14.221	158.953	-131.649	-257.875	181.414	-115.072	-253.579	208.73	-46.816	-153.158	-8.669	-46.816	31.938	-8.669	0	0	0	-139.861	37.015	45.99	-120.99	25.635	163.204	-169.766	-72.489	45.476
433	4.33	-98.209	-14.37	159.086	-131.557	-258.028	181.521	-114.988	-253.733	208.842	-46.816	-153.158	-8.669	-46.816	31.938	-8.669	0	0	0	-139.781	36.871	46.119	-120.948	25.531	163.343	-169.69	-72.631	45.633
434	4.34	-98.001	-14.518	159.087	-131.353	-258.177	181.493	-114.789	-253.885	208.818	-46.816	-153.158	-8.669	-46.816	31.938	-8.669	0	0	0	-139.484	36.635	46.278	-120.7	25.336	163.515	-169.436	-72.856	45.828
435	4.35	-97.833	-14.523	158.943	-131.163	-258.186	181.34	-114.602	-253.892	208.666	-46.816	-153.158	-8.669	-46.816	31.938	-8.669	0	0	0	-139.219	36.543	46.341	-120.473	25.287	163.588	-169.214	-72.936	45.928
436	4.36	-97.767	-14.454	158.858	-131.049	-258.124	181.257	-114.493	-253.826	208.586	-46.816	-153.158	-8.669	-46.816	31.938	-8.669	0	0	0	-139.134	36.661	46.263	-120.397	25.449	163.514	-169.138	-72.816	45.89
437	4.37	-97.842	-14.453	158.974	-131.087	-258.128	181.373	-114.542	-253.826	208.707	-46.816	-153.158	-8.669	-46.816	31.938	-8.669	0	0	0	-139.167	36.825	46.141	-120.422	25.662	163.397	-169.154	-72.657	45.814
438	4.38	-98.096	-14.494	159.187	-131.322	-258.171	181.589	-114.79	-253.865	208.931	-46.816	-153.158	-8.669	-46.816	31.938	-8.669	0	0	0	-139.239	36.907	46.078	-120.489	25.801	163.338	-169.209	-72.579	45.801
439	4.39	-98.385	-14.44	159.309	-131.579	-258.12	181.725	-115.055	-253.809	209.071	-46.816	-153.158	-8.669	-46.816	31.938	-8.669	0	0	0	-139.312	36.949	46.088	-120.563	25.904	163.354	-169.275	-72.54	45.867
440	4.4	-98.467	-14.274	159.26	-131.59	-257.962	181.688	-115.067	-253.645	209.033	-46.816	-153.158	-8.669	-46.816	31.938	-8.669	0	0	0	-139.328	36.994	46.141	-120.575	26.004	163.411	-169.282	-72.498	45.971
441	4.41	-98.286	-14.168	159.167	-131.319	-257.871	181.579	-114.799	-253.549	208.925	-46.816	-153.158	-8.669	-46.816	31.938	-8.669	0	0	0	-139.251	36.981	46.157	-120.485	26.035	163.43	-169.197	-72.512	46.03
442	4.42	-98.006	-14.265	159.191	-130.976	-257.982	181.539	-114.468	-253.661	208.892	-46.816	-153.158	-8.669	-46.816	31.938	-8.669	0	0	0	-139.129	36.866	46.07	-120.337	25.953	163.342	-169.078	-72.626	45.981
443	4.43	-97.795	-14.443	159.297	-130.738	-258.172	181.547	-114.242	-253.858	208.909	-46.816	-153.158	-8.669	-46.816	31.938	-8.669	0	0	0	-139.031	36.747	45.95	-120.211	25.863	163.219	-168.987	-72.744	45.896
444	4.44	-97.736	-14.456	159.419	-130.642	-258.198	181.589	-114.155	-253.889	208.958	-46.816	-153.158	-8.669	-46.816	31.938	-8.669	0	0	0	-139.021	36.779	45.937	-120.184	25.928	163.207	-168.96	-72.717	45.915
445	4.45	-97.81	-14.283	159.585	-130.65	-258.036	181.735	-114.176	-253.722	209.111	-46.816	-153.158	-8.669	-46.816	31.938	-8.669	0	0	0	-139.136	36.959	46.065	-120.3	26.152	163.339	-169.039	-72.547	46.077
446	4.46	-97.845	-14.165	159.695	-130.625	-257.925	181.852	-114.163	-253.604	209.233	-46.816	-153.158	-8.669	-46.816	31.938	-8.669	0	0	0	-139.281	37.093	46.218	-120.441	26.332	163.496	-169.154	-72.421	46.269
447	4.47	-97.689	-14.234	159.598	-130.425	-258.002	181.725	-113.966	-253.682	209.108	-46.816	-153.158	-8.669	-46.816	31.938	-8.669	0	0	0	-139.254	37.012	46.261	-120.38	26.285	163.537	-169.116	-72.504	46.35
448	4.48	-97.452	-14.344	159.434	-130.133	-258.125	181.502	-113.671	-253.809	208.884	-46.816	-153.158	-8.669	-46.816	31.938	-8.669	0	0	0	-139.062	36.801	46.188	-120.131	26.09	163.455	-168.925	-72.716	46.307
449	4.49	-97.388	-14.367	159.463	-130.015	-258.159	181.496	-113.557	-253.841	208.881	-46.816	-153.158	-8.669	-46.816	31.938	-8.669	0	0	0	-138.997	36.686	46.116	-120.016	25.992	163.378	-168.862	-72.83	46.265
450	4.5	-97.552	-14.36	159.693	-130.147	-258.156	181.724	-113.704	-253.834	209.117	-46.816	-153.158	-8.669	-46.816	31.938	-8.669	0	0	0	-139.202	36.747	46.126	-120.193	26.072	163.385	-169.06	-72.771	46.298
451	4.51	-97.715	-14.379	159.869	-130.272	-258.182	181.884	-113.84	-253.857	209.284	-46.816	-153.158	-8.669	-46.816	31.938	-8.669	0	0	0	-139.457	36.868	46.153	-120.418	26.205	163.407	-169.292	-72.656	46.338
452	4.52	-97.712	-14.348	159.774	-130.188	-258.166	181.741	-113.756	-253.842	209.14	-46.816	-153.158	-8.669	-46.816	31.938	-8.669	0	0	0	-139.536	36.939	46.105	-120.451	26.286	163.353	-169.339	-72.594	46.306
453	4.53	-97.674	-14.19	159.55	-130.044	-258.026	181.467	-113.606	-253.701	208.863	-46.816	-153.158	-8.669	-46.816	31.938	-8.669	0	0	0	-139.487	36.943	46.008	-120.36	26.316	163.252	-169.268	-72.596	46.241
454	4.54	-97.755	-13.983	159.502	-130.045	-257.833	181.383	-113.612	-253.507	208.781	-46.816	-153.158	-8.669	-46.816	31.938	-8.669	0	0	0	-139.466	36.899	45.977	-120.33	26.311	163.222	-169.242	-72.641	46.246
455	4.55	-97.878	-13.842	159.635	-130.118	-257.702	181.477	-113.702	-253.374	208.885	-46.816	-153.158	-8.669	-46.816	31.938	-8.669	0	0	0	-139.496	36.853	46.07	-120.383	26.296	163.322	-169.267	-72.688	46.362
456	4.56	-97.872	-13.73	159.675	-130.059	-257.601	181.473	-113.66	-253.271	208.891	-46.816	-153.158	-8.669	-46.816	31.938	-8.669	0	0	0	-139.472	36.871	46.196	-120.384	26.339	163.454	-169.225	-72.675	46.501
457	4.57	-97.748	-13.606	159.479	-129.873	-257.488	181.248	-113.482	-253.156	208.671	-46.816	-153.158	-8.669	-46.816	31.938	-8.669	0	0	0	-139.376	36.959	46.199	-120.283	26.45	163.459	-169.103	-72.594	46.523
